<svg width="47" height="60" viewBox="0 0 47 60" fill="none" xmlns="http://www.w3.org/2000/svg">
<g clip-path="url(#clip0_6_5879)">
<path d="M38.5566 25.2639L32.4773 30.1132L31.2713 31.0819L23.54 37.2467L15.7206 31.0434L14.5036 30.0746L8.44083 25.2639H0.489258V59.0931H8.47387V35.5514L13.0884 38.9915L14.5312 40.0649L21.6237 45.349H25.4618L32.3947 40.1805L33.8319 39.1126L38.6116 35.5514V59.0931H46.5907V25.2639H38.5566Z" fill="#212121"/>
<path d="M23.5192 25.0916L23.27 25.6271L23.0207 25.0916L13.5957 29.5478V59.2948H15.0296V30.4682L23.27 26.5705L31.512 30.4682V59.2948H32.9442V29.5478L23.5192 25.0916Z" fill="#999999"/>
<path d="M22.511 25.9023C22.0986 23.9801 19.6203 23.2885 17.4352 22.6785C16.6735 22.4657 15.9539 22.2635 15.3519 22.0171C12.8807 21.0081 10.0795 19.8643 8.50688 17.1192C7.48189 15.33 7.48364 13.0105 8.50864 11.2124C9.43359 9.59338 10.9957 8.69077 12.8438 8.79185C16.2329 8.96209 18.9622 11.9128 21.1842 17.8108C21.7984 19.4422 22.3759 21.1038 22.8989 22.7477C22.9902 23.0332 23.1306 23.347 23.2745 23.6715C23.5694 24.3365 23.873 25.0263 23.9239 25.6913L22.5093 25.9006L22.511 25.9023ZM12.5858 10.2335C10.9641 10.2335 10.1146 11.3011 9.75126 11.9377C8.9755 13.2942 8.97375 15.0445 9.74776 16.394C11.0746 18.7099 13.523 19.7082 15.8907 20.6765C16.4155 20.891 17.0965 21.0808 17.8178 21.2829C18.9587 21.6003 20.2294 21.9568 21.3211 22.5242C20.863 21.1233 20.368 19.7153 19.8468 18.3268C17.8494 13.0229 15.5362 10.3772 12.7736 10.2371L12.5875 10.2318L12.5858 10.2335Z" fill="#999999"/>
<path d="M24.2929 25.9025L22.8783 25.6933C22.9292 25.0265 23.2346 24.3367 23.5294 23.67C23.6716 23.3472 23.812 23.0351 23.9033 22.7496C24.4333 21.0898 25.0108 19.4283 25.618 17.8128C27.84 11.9148 30.5693 8.96406 33.9584 8.79382C35.7978 8.69806 37.3704 9.59535 38.2953 11.2179C39.3203 13.016 39.3203 15.3319 38.2953 17.1212C36.7192 19.8698 33.9198 21.0118 31.4503 22.019C30.8483 22.2655 30.1287 22.4659 29.367 22.6787C27.1819 23.2905 24.7036 23.9821 24.2894 25.9043L24.2929 25.9025ZM34.2164 10.2337L34.0304 10.2391C31.2696 10.3774 28.9563 13.0249 26.959 18.3288C26.4412 19.7031 25.9463 21.1129 25.4847 22.5244C26.5763 21.957 27.8471 21.6005 28.9879 21.2831C29.7092 21.081 30.3902 20.8912 30.915 20.6766C33.2809 19.7102 35.7276 18.7118 37.0562 16.3941C37.8302 15.0464 37.8302 13.2962 37.0544 11.9396C36.6929 11.3013 35.8399 10.2337 34.2164 10.2337Z" fill="#999999"/>
</g>
<defs>
<clipPath id="clip0_6_5879">
<rect width="46.3603" height="58.8901" fill="white" transform="translate(0.230469 0.203125)"/>
</clipPath>
</defs>
</svg>
