<svg width="297" height="46" viewBox="0 0 297 46" fill="none" xmlns="http://www.w3.org/2000/svg">
<path d="M0.417542 1.95581H10.4586V44.8204H0.417542V1.95581Z" fill="#212121"/>
<path d="M46.5867 36.2511V44.8204H24.4827V1.95581H34.4V36.2511H46.5867Z" fill="#212121"/>
<path d="M80.157 36.2511V44.8204H58.0531V1.95581H67.9703V36.2511H80.157Z" fill="#212121"/>
<path d="M101.542 9.91526V19.6491H117.768V27.4251H101.542V36.8564H117.768V44.8158H91.6198V1.95581H117.768V9.91526H101.542Z" fill="#212121"/>
<path d="M147.155 1.95581C161.359 1.95581 169.442 12.4278 169.442 23.3904C169.442 34.353 161.423 44.8204 147.155 44.8204H131.419V1.95581H147.155ZM141.336 10.5296V36.2466H146.664C154.688 36.2466 159.341 30.0019 159.341 23.3858C159.341 16.7697 154.688 10.5296 146.664 10.5296H141.336Z" fill="#212121"/>
<path d="M179.194 23.3917C179.194 11.6359 187.644 0.856689 201.912 0.856689C216.18 0.856689 224.566 11.6359 224.566 23.3917C224.566 35.1474 216.116 45.9266 201.912 45.9266C187.708 45.9266 179.194 35.1474 179.194 23.3917ZM214.466 23.3917C214.466 16.3492 209.688 9.8019 201.912 9.8019C194.136 9.8019 189.359 16.3538 189.359 23.3917C189.359 30.4295 194.072 36.986 201.912 36.986C209.752 36.986 214.466 30.4341 214.466 23.3917Z" fill="#212121"/>
<path d="M262.304 29.8781V1.95581H272.166V44.8204H261.813L246.38 17.2695V44.8204H236.463V1.95581H246.811L262.304 29.8781Z" fill="#212121"/>
<path d="M286.194 1.95581H296.235V44.8204H286.194V1.95581Z" fill="#212121"/>
</svg>
